<svg xmlns="http://www.w3.org/2000/svg" width="890.202" height="511.491" viewBox="0 0 890.202 511.491"><defs><style>.a{fill:#f2f2f2;}.b{fill:#6c63ff;}.c{fill:#3f3d56;}.d{opacity:0.1;}</style></defs><g transform="translate(0 0)"><circle class="a" cx="46.295" cy="46.295" r="46.295" transform="translate(146.587 361.436)"/><circle class="b" cx="46.295" cy="46.295" r="46.295" transform="translate(154.114 354.661)"/><rect class="c" width="572.801" height="1.563" transform="translate(237.693 349.731)"/><path class="c" d="M570.622,140.209H367.314v-4.19H275.125v4.19H70.978a13.752,13.752,0,0,0-13.752,13.752V432.353a13.752,13.752,0,0,0,13.752,13.752H570.622a13.752,13.752,0,0,0,13.752-13.752V153.961a13.752,13.752,0,0,0-13.752-13.752Z" transform="translate(-36.274 -125.633)"/><rect class="b" width="490.273" height="276.564" transform="translate(39.389 38.88)"/><circle class="b" cx="5.028" cy="5.028" r="5.028" transform="translate(279.078 21.28)"/><path class="d" d="M400.469,326.318H50.406V49.754Z" transform="translate(-11.016 -10.874)"/><circle class="a" cx="47.127" cy="47.127" r="47.127" transform="translate(68.976 200.495)"/><rect class="c" width="45.797" height="9.57" transform="translate(398.501 188.033)"/><rect class="c" width="156.529" height="4.101" transform="translate(343.135 113.528)"/><rect class="c" width="156.529" height="4.101" transform="translate(343.135 126.515)"/><rect class="c" width="156.529" height="4.101" transform="translate(343.135 139.502)"/><rect class="c" width="156.529" height="4.101" transform="translate(343.135 152.489)"/><rect class="c" width="156.529" height="4.101" transform="translate(343.135 165.477)"/><rect class="a" width="19.139" height="19.139" transform="translate(480.525 44.491)"/><path class="c" d="M674.7,209.025h-23.24v-23.24H674.7Zm-22.23-1.01h21.219V186.8H652.465Z" transform="translate(-166.145 -136.51)"/><path class="c" d="M592.281,518.8H544.433v-3.447a.683.683,0,0,0-.684-.684h-16.4a.683.683,0,0,0-.684.684V518.8H516.408v-3.447a.683.683,0,0,0-.683-.684h-16.4a.684.684,0,0,0-.684.684V518.8H488.383v-3.447a.684.684,0,0,0-.684-.684H471.295a.684.684,0,0,0-.684.684V518.8H460.358v-3.447a.684.684,0,0,0-.684-.684H443.27a.684.684,0,0,0-.684.684V518.8H432.333v-3.447a.684.684,0,0,0-.684-.684H415.245a.683.683,0,0,0-.684.683V518.8H404.308v-3.447a.684.684,0,0,0-.684-.684h-16.4a.684.684,0,0,0-.684.684V518.8H376.283v-3.447a.684.684,0,0,0-.684-.684H247.1a.684.684,0,0,0-.684.684V518.8H236.159v-3.447a.684.684,0,0,0-.684-.684H219.07a.683.683,0,0,0-.684.683V518.8H208.134v-3.447a.684.684,0,0,0-.684-.684h-16.4a.684.684,0,0,0-.684.684V518.8H180.109v-3.447a.684.684,0,0,0-.684-.684H163.02a.684.684,0,0,0-.684.684V518.8H152.084v-3.447a.684.684,0,0,0-.684-.684H135a.684.684,0,0,0-.684.684V518.8H124.059v-3.447a.684.684,0,0,0-.684-.684H106.97a.684.684,0,0,0-.684.684V518.8H96.034v-3.447a.684.684,0,0,0-.684-.684h-16.4a.683.683,0,0,0-.684.684V518.8H46.819a16.4,16.4,0,0,0-16.4,16.4v7.418a16.4,16.4,0,0,0,16.4,16.4H592.281a16.4,16.4,0,0,0,16.4-16.4v-7.418a16.4,16.4,0,0,0-16.4-16.4Z" transform="translate(-30.415 -208.389)"/><path class="c" d="M176.976,444.052a59.39,59.39,0,1,1,59.39-59.39,59.39,59.39,0,0,1-59.39,59.39Zm0-117.217A57.827,57.827,0,1,0,234.8,384.662a57.827,57.827,0,0,0-57.827-57.827Z" transform="translate(-49.466 -166.995)"/><rect class="c" width="199.269" height="1.563" transform="translate(458.062 25.431)"/><rect class="c" width="572.801" height="1.563" transform="translate(317.401 438.035)"/><rect class="c" width="199.269" height="1.563" transform="translate(150.563 509.928)"/><rect class="b" width="22" height="22" transform="translate(368 430)"/><path class="c" d="M538.984,677.3H512.415V650.728h26.569Zm-25.414-1.155h24.258V651.884H513.57Z" transform="translate(-135.757 -238.124)"/><rect class="b" width="22" height="22" transform="translate(622 17)"/><path class="c" d="M863.984,149.3H837.415V122.728h26.569Zm-25.414-1.155h24.258V123.884H838.57Z" transform="translate(-206.787 -122.728)"/><rect class="b" width="22" height="22" transform="translate(842 430)"/><path class="c" d="M1145.979,677.3H1119.41V650.728h26.569Zm-25.414-1.155h24.259V651.884h-24.259Z" transform="translate(-268.418 -238.124)"/><path class="c" d="M1040.412,332.2h-1.859V281.283a29.471,29.471,0,0,0-29.471-29.471H901.2a29.471,29.471,0,0,0-29.471,29.472V560.635A29.471,29.471,0,0,0,901.2,590.106h107.881a29.471,29.471,0,0,0,29.471-29.471V368.449h1.859Z" transform="translate(-214.286 -150.94)"/><path class="b" d="M1034.553,285.588V564.533a22.01,22.01,0,0,1-22.009,22.013h-108.4a22.009,22.009,0,0,1-22.005-22.009V285.588a22.007,22.007,0,0,1,22-22.006h13.154a10.455,10.455,0,0,0,9.682,14.4h61.8a10.455,10.455,0,0,0,9.682-14.4h14.082a22.008,22.008,0,0,1,22.009,22.006Z" transform="translate(-216.561 -153.512)"/><rect class="c" width="32.292" height="9.57" transform="translate(725.636 293.994)"/><rect class="c" width="110.372" height="4.101" transform="translate(686.596 219.489)"/><rect class="c" width="110.372" height="4.101" transform="translate(686.596 232.476)"/><rect class="c" width="110.372" height="4.101" transform="translate(686.596 245.463)"/><rect class="c" width="110.372" height="4.101" transform="translate(686.596 258.45)"/><rect class="c" width="110.372" height="4.101" transform="translate(686.596 271.437)"/><rect class="a" width="19.139" height="19.139" transform="translate(726.499 165.025)"/><path class="c" d="M969.474,340.032v23.24h23.24v-23.24Zm22.232,22.232H970.482V341.04h21.224Z" transform="translate(-235.649 -170.221)"/><path class="d" d="M1034.553,576.905v29.789a22.01,22.01,0,0,1-22.01,22.013h-108.4A22.009,22.009,0,0,1,882.136,606.7V456.492l91.328,72.151,1.563,1.235L992.015,543.3l1.586,1.258Z" transform="translate(-216.561 -195.674)"/><circle class="a" cx="34.28" cy="34.28" r="34.28" transform="translate(698.124 355.433)"/><path class="c" d="M331.572,739.244a67.986,67.986,0,1,1,67.986-67.986A67.986,67.986,0,0,1,331.572,739.244Zm0-134.409a66.423,66.423,0,1,0,66.423,66.423,66.423,66.423,0,0,0-66.423-66.423Z" transform="translate(-81.375 -227.753)"/><path class="c" d="M968.566,631.231a42.98,42.98,0,1,1,42.979-42.98A42.98,42.98,0,0,1,968.566,631.231Zm0-84.4a41.417,41.417,0,1,0,41.417,41.417A41.417,41.417,0,0,0,968.566,546.835Z" transform="translate(-226.057 -215.077)"/></g></svg>